#!OML:ASF F:\VICON\USERDATA\INSTALL\rory3\rory3.ASF
:FULLY-SPECIFIED
:DEGREES
47
root -0.4357764862205436 18.24770897569331 12.655391412489884 5.163703347378806 -2.9699237632922584 1.7912826282595022
lfemur 2.925579181127432 -4.726989299114427 -29.05352571085543
ltibia 52.68253390428745
lfoot 24.35813057168209 -11.843076499508477
ltoes -9.214591536587188
rfemur -32.62694949413529 -3.879755128072148 28.27061246758089
rtibia 26.622722387916042
rfoot 0.5267664120651769 -8.332686431174357
rtoes -23.92838969830631
lowerback 14.262595373345052 -1.279808485606075 -1.3215628077985238
upperback -0.7643024691370254 -1.885087700579862 1.4649128840645893
thorax -5.567223289193665 -0.7502118903289883 2.5351678563511397
lowerneck -18.697946689298085 -2.900258711992165 -3.0561670496396878
upperneck 15.22877877801347 -3.228790672855096 1.8410393429138254
head 8.053762347364763 -1.442666796136085 0.9013941699909227
lclavicle -6.500076708995732e-16 -4.862268275341809e-15
lhumerus -38.33741624857043 -17.855309224649098 94.75025357442883
lradius 114.6998694072805
lwrist 27.03374897166957
lhand -30.631965969470816 -3.45257436556354
lfingers 7.125019999999998
lthumb -4.0507474061544055 27.099513239517467
rclavicle -6.445789357277313e-16 -4.859719837383789e-15
rhumerus -53.546373692491045 11.912876579028788 -102.39228196110165
rradius 117.94394035232435
rwrist -15.886034145054735
rhand -16.764692365026928 35.01275091430512
rfingers 7.125019999999998
rthumb 9.160695782892613 7.559607621866136
48
root -0.42320605390509997 18.08867154918094 13.527773705324798 4.47298486947018 -4.448690416584404 1.0424839377844217
lfemur 1.4439364200828706 -3.1890650131478195 -27.50044826437326
ltibia 60.19403978522343
lfoot 21.71668747657932 -11.602026250330237
ltoes -8.17377808922958
rfemur -31.603627287599807 -1.5126364014985794 29.289258708060483
rtibia 29.29315043222683
rfoot 0.5268587854647575 -5.431415986586183
rtoes -22.752686822848975
lowerback 14.654461348180112 -1.0415772724378969 -0.8028765340463591
upperback -0.3186841327131104 -1.4786465035931697 1.6470706318103554
thorax -5.780997446161296 -0.5266441610748047 2.31414666250628
lowerneck -18.566147051449 -2.992304521339749 -3.0082230467556315
upperneck 15.096585955017629 -3.349965646200725 1.600998363567756
head 8.035996133758397 -1.516893399627158 0.7671496274425579
lclavicle -6.500121714061725e-16 -4.862263979938747e-15
lhumerus -39.20559148507034 -17.304569840214466 95.19474393790601
lradius 111.25344292719004
lwrist 26.139256605915072
lhand -30.609868052527627 -3.075460757558394
lfingers 7.125019999999998
lthumb -4.133931500458921 27.436981995611557
rclavicle -6.430596110321767e-16 -4.858588584168194e-15
rhumerus -53.4938826393824 11.783955212890417 -102.8372397700025
rradius 119.63505159429096
rwrist -15.77940256015976
rhand -17.213415070277584 34.88275133745779
rfingers 7.125019999999998
rthumb 9.126150039110453 7.578916420249388
49
root -0.4298071065043097 17.89919389832742 14.470209127571163 3.973384920257894 -5.668984942258862 -0.12437071920817
lfemur -0.6705161290496093 -1.3385893990804711 -25.035979723062827
ltibia 68.21038602147107
lfoot 19.086509258157687 -11.531488098268982
ltoes -7.538520555768233
rfemur -30.339401452774354 0.9087336559734374 30.883061761254872
rtibia 32.70182293030865
rfoot -0.7658142898945779 -1.6750493738327155
rtoes -13.673421816662271
lowerback 15.174465712442057 -0.8424384286800594 0.07253826005953234
upperback -0.21982549419041353 -1.0955866158712149 1.9829631559221614
thorax -6.377628046890829 -0.3814270374638425 2.082584465317248
lowerneck -18.14661768448731 -2.95743154991779 -3.021469786479153
upperneck 15.13082955197427 -3.3303967146601456 1.4516800004650448
head 7.972360277973448 -1.5337905979510942 0.7233587311060055
lclavicle -6.512699162366038e-16 -4.8631408687993855e-15
lhumerus -40.55275864034556 -16.456095788275967 95.62418735887806
lradius 107.4833979511394
lwrist 29.542889341091296
lhand -31.779909721198685 -2.7128099190706045
lfingers 7.125019999999998
lthumb -5.290983381722155 27.277441087694903
rclavicle -6.440174526130466e-16 -4.858956398518632e-15
rhumerus -53.37810868372857 11.828919594962105 -103.11019051428558
rradius 121.35067509823338
rwrist -16.551678668318708
rhand -17.282069521528193 35.13838857695624
rfingers 7.125019999999998
rthumb 9.05519166452444 7.301639330342184
50
root -0.40586859059646463 17.672267589046083 15.634728578296727 3.467606428246805 -6.577137895641806 0.3612745268255957
lfemur -2.436629967945887 0.3585862780923301 -24.49648472368694
ltibia 76.0438041791799
lfoot 17.785960596185422 -10.784340765683101
ltoes -4.812814095468804
rfemur -28.72977697389319 1.7490276497058013 30.660460746681956
rtibia 37.15102453486443
rfoot -4.831666335211025 0.4288338302386281
rtoes -2.677551436641869
lowerback 15.259589119830036 -0.6067880340857673 -0.4897820484280815
upperback -0.1103905629751144 -0.8685290898238728 1.8604979997867783
thorax -6.57431310718453 -0.288750639114067 2.148945433535112
lowerneck -17.903582298403 -2.9519955103406827 -3.029065311099366
upperneck 15.09500288624712 -3.3064002953631295 1.307879967075166
head 7.85487150207336 -1.5482050247533077 0.6780225422141956
lclavicle -6.488655446372049e-16 -4.861453866115786e-15
lhumerus -42.10234942650286 -15.646898939969816 96.16973029875753
lradius 103.99553071779461
lwrist 27.98396759029249
lhand -32.873269637049944 -2.518660949081548
lfingers 7.125019999999998
lthumb -5.668855404144434 27.078989268577825
rclavicle -6.472469690912363e-16 -4.861238868407887e-15
rhumerus -53.00752879524148 11.984902940588578 -103.04394791053302
rradius 123.23491099922477
rwrist -16.457184708977692
rhand -17.668039472134158 35.258890186592566
rfingers 7.125019999999998
rthumb 9.089883381273818 7.508753323621015
